<svg fill="none" height="44" viewBox="0 0 118 44" width="118" xmlns="http://www.w3.org/2000/svg" xmlns:xlink="http://www.w3.org/1999/xlink"><clipPath id="a"><path d="m0 0h118v44h-118z"/></clipPath><g clip-path="url(#a)"><g fill="#a77c4f"><path d="m17.2919 6.89767h1.1936v.77765c.1535-.2758.3813-.50439.6582-.66053s.5921-.23376.9108-.2243c.6699 0 1.207.28224 1.4592.91461.1881-.28577.4467-.51965.7516-.67964.3049-.16.646-.24086.9912-.23497.9475 0 1.7163.57401 1.7163 1.97569v3.21542h-1.1936v-3.13801c0-.74907-.3247-1.07181-.9173-1.07181s-1.1333.38943-1.1333 1.16827v3.04515h-1.1937v-3.14161c0-.74907-.3355-1.07181-.9173-1.07181-.5817 0-1.1333.38943-1.1333 1.16827v3.04515h-1.1937z"/><path d="m27.7053 11.4707-2.0421-4.57304h1.2926l1.3699 3.27854 1.2625-3.27854h1.1635l-2.8098 6.83094h-1.1743z"/><path d="m31.9465 10.5656v-2.7831h-.6904v-.88483h.6904v-1.11706h1.1924v1.11944h1.1346v.88483h-1.1346v2.67592c0 .4478.2173.6526.5926.6526.1986.0066.3965-.0266.5818-.0976v.9336c-.2595.0906-.5335.1337-.8087.1275-1.0271-.0024-1.5581-.5478-1.5581-1.5113z"/><path d="m35.041 9.50572v-.0786c0-1.61485 1.1635-2.63664 2.6034-2.63664 1.1442 0 2.2195.50613 2.3571 1.90543h-1.1538c-.099-.68119-.5528-.96343-1.1828-.96343-.8195 0-1.4013.62284-1.4013 1.6744v.07741c0 1.10991.5528 1.69341 1.4303 1.69341.6312 0 1.1743-.3703 1.2431-1.0896h1.0959c-.0893 1.167-.9861 1.9947-2.3873 1.9947-1.4749.0012-2.6046-.9527-2.6046-2.57708z"/><path d="m40.6823 10.5751c0-1.19085 1.1634-1.61481 2.6419-1.61481h.6409v-.26318c0-.6812-.2414-1.02179-.9366-1.02179-.6215 0-.9269.29296-.986.7979h-1.1539c.099-1.1909 1.0549-1.68274 2.2087-1.68274 1.1539 0 2.0615.46683 2.0615 1.85899v3.33453h-1.1732v-.6229c-.3355.4383-.7893.7205-1.5786.7205-.9463.0024-1.7247-.4454-1.7247-1.5065zm3.2828-.3691v-.50616h-.6107c-.9076 0-1.4894.20484-1.4894.83366 0 .4275.2414.7145.828.7145.7302-.0107 1.2721-.3906 1.2721-1.042z"/><path d="m46.134 10.4001h1.1249c.0591.5156.3259.8181 1.0259.8181.6409 0 .9269-.2239.9269-.6526s-.3452-.57399-1.1043-.70022c-1.3614-.21436-1.8647-.59545-1.8647-1.54817 0-1.02178.9655-1.52791 1.9311-1.52791 1.0548 0 1.8936.38942 2.0216 1.53744h-1.1044c-.0989-.46683-.362-.68119-.9172-.68119-.513 0-.8183.23818-.8183.60378 0 .36561.2413.51566 1.0645.65142 1.2069.18459 1.9311.47636 1.9311 1.55655 0 1.0313-.7399 1.6255-2.0615 1.6255s-2.1013-.6026-2.1556-1.6827z"/><path d="m51.3311 11.2956c-.0031-.1539.0403-.3052.1248-.4347.0845-.1294.2062-.231.3496-.2918.1433-.0609.3018-.0781.4551-.0496.1533.0284.2946.1014.4057.2095s.187.2464.218.3973.0157.3075-.0439.4497c-.0596.1423-.1609.2638-.2909.349-.1299.0851-.2827.1302-.4387.1292-.102.0018-.2033-.0166-.298-.0539-.0946-.0374-.1808-.0931-.2534-.1637-.0726-.0707-.1302-.1549-.1694-.2478s-.0592-.1925-.0589-.2932z"/><path d="m53.6581 9.50572v-.0786c0-1.61485 1.1647-2.63664 2.6045-2.63664 1.143 0 2.2184.50613 2.356 1.90543h-1.1538c-.0978-.68119-.5516-.96343-1.1828-.96343-.8183 0-1.4013.62284-1.4013 1.6744v.07741c0 1.10991.5528 1.69341 1.4302 1.69341.6313 0 1.1744-.3703 1.2432-1.0896h1.0947c-.0894 1.167-.9861 1.9947-2.3862 1.9947-1.4797.0012-2.6045-.9527-2.6045-2.57708z"/><path d="m59.3282 9.49501v-.07741c0-1.57675 1.1346-2.62712 2.6553-2.62712 1.5208 0 2.6432 1.04085 2.6432 2.59854v.08336c0 1.58632-1.1345 2.62002-2.6553 2.62002-1.5207 0-2.6432-1.0492-2.6432-2.59739zm4.0735-.01906v-.06788c0-1.05156-.5335-1.69345-1.4206-1.69345s-1.4302.63236-1.4302 1.68392v.07384c0 1.04082.5226 1.69342 1.4302 1.69342.8871.0036 1.4206-.649 1.4206-1.69342z"/><path d="m65.6985 6.89767h1.1936v.77765c.1536-.2758.3813-.50439.6582-.66053s.5921-.23376.9109-.2243c.671 0 1.2069.28224 1.4592.91461.1882-.28612.4473-.52021.7526-.68022.3053-.16002.6469-.24068.9926-.23439.9474 0 1.7163.57401 1.7163 1.97569v3.21542h-1.1925v-3.13801c0-.74907-.3259-1.07181-.9173-1.07181s-1.1345.38943-1.1345 1.16827v3.04515h-1.1937v-3.14161c0-.74907-.3355-1.07181-.916-1.07181-.5806 0-1.1345.38943-1.1345 1.16827v3.04515h-1.1937z"/></g><path d="m4.96293 21.4587h-4.96293v-3.1963h14.1212v3.1963h-4.96778v14.9446h-4.19049z" fill="#1a477f"/><path d="m43.9423 32.3697-1.254 4.0336h-3.9141l6.0431-18.1409h5.4312l5.9575 18.1409h-4.345l-4.5767-14.7909z" fill="#1a477f"/><path d="m59.6216 30.7203h3.9829c.1798 1.6244.8738 2.9689 3.5991 2.9689 1.8261 0 3.0342-.9896 3.0342-2.4103 0-1.447-.7712-1.9543-3.4711-2.3604-4.7071-.6085-6.6382-2.0043-6.6382-5.5055 0-3.0963 2.6227-5.4043 6.6852-5.4043 4.1398 0 6.5573 1.8268 6.8916 5.4305h-3.8235c-.2571-1.6494-1.2335-2.4151-3.0548-2.4151s-2.7518.8336-2.7518 2.0543c0 1.2945.5914 1.9054 3.4204 2.3091 4.4488.5585 6.7372 1.7506 6.7372 5.5055 0 3.2226-2.6746 5.7854-7.0208 5.7854-5.0438.0047-7.3587-2.3294-7.5904-5.9581z" fill="#1a477f"/><path d="m34.3917 27.8919-3.0644.0096c-.0398 2.7926-1.2745 4.317-2.5128 5.1506l4.6925-.8753c.6442-1.3359.9479-2.8068.8847-4.2849z" fill="#ffb600"/><path d="m31.7533 28.6005c-.4103 2.3485-1.5376 3.6513-2.7035 4.373l4.6733-.6169c.5628-1.0205.921-2.1385 1.0548-3.2928z" fill="#ff3918"/><path d="m31.8692 29.4532c-.5962 1.6947-1.4942 2.7391-2.4428 3.3774l4.4512-.3489c.3941-.6529.6985-1.3545.9052-2.0865z" fill="#00a3ab"/><path d="m31.967 30.2202c-.7362 1.2647-1.6089 2.0792-2.4984 2.5925l4.6093-.1619c.2158-.3085.4071-.633.5721-.9706z" fill="#00709a"/><path d="m31.4903 31.3324c-.5275.6113-1.1833 1.102-1.9221 1.4382s-1.5429.5099-2.3565.509c-3.173 0-5.7547-2.6569-5.7547-5.9235 0-3.2667 2.5817-5.9224 5.7547-5.9224.8133-.0011 1.6172.1723 2.3558.5084.7386.336 1.3943.8265 1.9216 1.4376l.4248.493 2.636-2.2056-.4248-.4942c-1.6898-1.9614-4.205-3.0868-6.9134-3.0868-5.1391 0-9.32 4.1586-9.32 9.27 0 5.1113 4.1809 9.2687 9.32 9.2687 2.7096 0 5.2285-1.1254 6.9134-3.0868l.4248-.4942-2.636-2.2056z" fill="#1a477f"/><g fill="#a77c4f"><path d="m13.9438 9.15917h-4.26412c-.06397 0-1.57988-.05835-2.33905-.65261l.72416-.50137c.59261.46326 1.62092.51328 1.63058.51328h2.73373c-1.8104-1.7268-3.68239-2.56519-5.61831-2.49374-2.44768.0917-4.3655 1.65654-5.22122 2.49374h1.71506l-.16897.6407h-2.961832l.417602-.51923c.10259-.12743 2.55147-3.11538 6.18677-3.25472 2.30525-.08931 4.549 1.00036 6.6575 3.23567z"/><path d="m4.72754 9.01985h-.22449l.20277-.63951c.0531 0 1.25401.03453 2.25094-1.1647.41519-.50017.86417-.59545 1.18038-.58711 1.0247.0262 2.24366 1.52315 2.28116 1.57317l-.85817.04764c-.20156-.26795-.85331-.96701-1.44109-.9813-.24139 0-.45863.10956-.6614.35727-1.09832 1.3207-2.44526 1.39454-2.7301 1.39454z"/><path d="m5.57723 12.0923c-.73865 0-1.34815-.3906-1.75972-1.1456-.22448-.4335-.35029-.9102-.36863-1.39664-.01835-.48648.07121-.97105.26242-1.41982.34881-.86459.82675-1.36477 1.42057-1.48743.74589-.15601 1.34574.37037 1.36987.39299l-.48277.4585.24139-.22984-.24139.23103s-.36208-.30844-.73623-.22746c-.34277.07265-.6602.44778-.91607 1.08491-.15894.36662-.2345.76316-.22136 1.1617.01314.39855.11465.78936.2974 1.14506.39467.7253.93417.9432 1.69937.6931l.24138.5954c-.25895.0913-.53131.1399-.80623.1441z"/><path d="m7.03769 13.4309c-.0869 0-.1738 0-.25949 0-3.6353-.1393-6.08418-3.1273-6.18677-3.2547l-.417602-.51923h2.959412l.16897.64073h-1.71506c.85572.8336 2.77596 2.402 5.22122 2.4937 1.9311.0726 3.80793-.7669 5.61833-2.4937h-2.74702s-1.02469.05-1.6173.5132l-.72416-.5013c.75916-.59547 2.27508-.65025 2.32456-.65144h4.27862l-.5057.52874c-2.0289 2.1555-4.17966 3.244-6.39801 3.244z"/><path d="m8.10214 12.184c-.30777 0-.74588-.1059-1.14538-.5871-.99693-1.1992-2.19904-1.1694-2.25094-1.1647l-.20277-.64067c.56649.0044 1.12501.1321 1.63572.37397.51072.2419.96105.592 1.31887 1.0253.20276.2382.42725.3668.66261.3573.59019-.0155 1.23952-.7145 1.43988-.9813l.86777.0381c-.0374.05-1.26606 1.5565-2.29317 1.5827z"/></g><path d="m99.8537 0s-6.4969 7.85991-18.1463 7.57052v7.91708h36.2936v-7.92065c-11.65.29415-18.1473-7.56695-18.1473-7.56695z" fill="#ffb600"/><path d="m81.7074 7.60744v28.81966c11.6494-.2906 18.1463 7.5705 18.1463 7.5705v-28.8196s-6.4969-7.86114-18.1463-7.57056z" fill="#00a0a9"/><path d="m118.001 7.60744v28.81966c-11.649-.2906-18.1461 7.5705-18.1461 7.5705v-28.8196s6.4961-7.86114 18.1461-7.57056z" fill="#006e96"/><path d="m113.106 15.0017v2.3985l-4.76 1.3492-.628 4.3575.035.0346c.251-.465.593-.8762 1.005-1.21.353-.2992.764-.5249 1.207-.6633.604-.1691 1.129-.1822 1.597-.0405.472.1431.886.4284 1.185.8158.347.4614.594.9884.725 1.5481.17.6921.252 1.4028.241 2.1151-.007.705-.085 1.4076-.234 2.0971-.154.7335-.404 1.4441-.744 2.1139-.332.6585-.771 1.2591-1.3 1.778-.524.5128-1.172.8853-1.882 1.0825-.525.1602-1.078.2094-1.623.1441-.485-.0654-.941-.2671-1.313-.5812-.406-.3556-.716-.8059-.9-1.31-.222-.5557-.343-1.246-.362-2.0709l1.96-.555c.053.8733.275 1.495.665 1.865.389.3703.902.462 1.544.2798.392-.1053.753-.304 1.05-.5788.292-.2775.528-.6073.696-.9717.184-.4002.312-.8233.38-1.2576.077-.4766.115-.9585.114-1.441.004-.4256-.041-.8502-.133-1.2659-.074-.3481-.215-.6794-.413-.9765-.172-.2528-.421-.4454-.711-.5502-.332-.1059-.689-.1029-1.02.0083-.431.1273-.827.3474-1.162.6443-.362.3156-.623.7836-.782 1.4088l-1.959.555 1.306-9.3652z" fill="#fff"/><path d="m94.618 26.077c.1693.7425.2503 1.5018.2414 2.2627.0025.7257-.1024 1.4479-.3114 2.1436-.1674.5714-.4553 1.1015-.8449 1.5554-.3441.3929-.7965.6788-1.3022.8229-.5482.1396-1.1253.1231-1.6644-.0477-.8398-.2212-1.6005-.6691-2.1966-1.2933-.592-.6449-1.0482-1.3994-1.3421-2.2198-.3392-.9449-.5601-1.9271-.6578-2.9249-.1204-1.14-.174-2.286-.1605-3.4321.0093-.978.0981-1.9537.2655-2.9177.1401-.8755.4114-1.7256.805-2.5223.3685-.7217.8489-1.2584 1.4411-1.6101s1.3164-.4057 2.1725-.162c.5021.144.9694.3871 1.3735.7146.4384.3538.8197.7715 1.1309 1.2385.3384.51.6063 1.0623.7965 1.6422.2099.625.3254 1.2771.3428 1.9352l-1.9878-.5621c-.0217-.6278-.1982-1.2409-.5142-1.7863-.2673-.4723-.7127-.8215-1.2395-.9718-.3025-.1038-.6317-.1038-.9342 0-.2687.1115-.5003.2951-.6686.53-.1978.2743-.3494.5783-.449.9003-.1174.3727-.2117.7521-.2824 1.1361-.0736.4025-.1279.8074-.1605 1.2147s-.0652.7884-.0917 1.1421l.0349.0583c.2752-.5835.6494-.967 1.1225-1.1563.4895-.1883 1.0294-.2059 1.5304-.05.5997.1685 1.1524.4699 1.6161.8812.4847.4306.8901.9407 1.1985 1.5077.3366.6202.5843 1.2835.7362 1.9709zm-1.8937 2.8987c.0955-.409.1445-.8272.1461-1.2469.0048-.4396-.0356-.8785-.1207-1.31-.0745-.4105-.2052-.8092-.3887-1.1849-.1684-.344-.3926-.6586-.6638-.9313-.2592-.2573-.5821-.4432-.9366-.5395-.3087-.1035-.6435-.1035-.9522 0-.2799.1059-.5215.2917-.694.5335-.2052.2869-.3516.6105-.4309.9528-.1002.4103-.1513.8307-.1521 1.2528-.0063.4475.0341.8945.1207 1.3338.0842.4189.2213.8258.408 1.2111.1691.356.3989.6807.6795.9599.2624.2603.5882.4498.9462.5502.3077.1049.6435.096.945-.025.2758-.1271.5108-.3265.6795-.5764.1987-.2976.338-.6298.4104-.9789" fill="#fff"/></g></svg>